# xmcd CD database file
#
# Track frame offsets:
#	150
#	27400
#	37412
#	59185
#	79827
#	99222
#	122950
#	151857
#	179637
#	207152
#	226147
#
# Disc length: 3322 seconds
#
# Revision: 0
# Processed by: cddbd v1.5.2PL0 Copyright (c) Steve Scherf et al.
# Submitted via: CDex 1.51
#
DISCID=980cf80b
DTITLE=Erik Hove - Sound Clash
DYEAR=2008
DGENRE=Jazz
TTITLE0=Transfer Error
TTITLE1=A Message From P
TTITLE2=Nine Lives
TTITLE3=Gift Of Gab
TTITLE4=Sleep And Dreamers PT.1: The Hypnogogic
TTITLE5=Sleep And Dreamers PT.2: The Dreamer's Flight
TTITLE6=Interconnectivity
TTITLE7=Metal Fitness
TTITLE8=Dancehall Monitor
TTITLE9=Step Lively
TTITLE10=Floating In The Ether
EXTD=YEAR: 2008
EXTT0=
EXTT1=
EXTT2=
EXTT3=
EXTT4=
EXTT5=
EXTT6=
EXTT7=
EXTT8=
EXTT9=
EXTT10=
PLAYORDER=
